<?xml version="1.0" encoding="UTF-8" standalone="no"?><!-- Generator: Gravit.io --><svg xmlns="http://www.w3.org/2000/svg" xmlns:xlink="http://www.w3.org/1999/xlink" style="isolation:isolate" viewBox="0 0 467.717 155.906" width="467.717pt" height="155.906pt"><g><g><path d=" M 170.939 72.811 L 166.267 72.811 L 166.267 68.103 L 170.939 68.103 L 170.939 72.811 L 170.939 72.811 Z  M 176.181 60.507 L 172.686 60.507 L 172.686 57.012 L 176.181 57.012 L 176.181 60.507 L 176.181 60.507 Z  M 217.086 60.507 L 213.591 60.507 L 213.591 57.012 L 217.086 57.012 L 217.086 60.507 L 217.086 60.507 Z  M 171.509 61.684 L 177.358 61.684 L 177.358 55.835 L 171.509 55.835 L 171.509 61.684 L 171.509 61.684 Z  M 170.939 49.416 L 166.267 49.416 L 166.267 44.744 L 170.939 44.744 L 170.939 49.416 L 170.939 49.416 Z  M 182.03 42.997 L 178.535 42.997 L 178.535 39.502 L 182.03 39.502 L 182.03 42.997 L 182.03 42.997 Z  M 205.995 43.567 L 201.323 43.567 L 201.323 38.895 L 205.995 38.895 L 205.995 43.567 L 205.995 43.567 Z  M 212.415 125.948 L 171.509 125.948 L 171.509 120.135 L 165.696 120.135 L 165.696 73.381 L 171.509 73.381 L 171.509 67.533 L 165.696 67.533 L 165.696 50.022 L 171.509 50.022 L 171.509 38.325 L 177.358 38.325 L 177.358 44.173 L 183.207 44.173 L 183.207 38.325 L 200.753 38.325 L 200.753 44.173 L 206.566 44.173 L 206.566 38.325 L 212.415 38.325 L 212.415 44.173 L 218.263 44.173 L 218.263 55.835 L 212.415 55.835 L 212.415 61.684 L 200.753 61.684 L 200.753 55.835 L 183.207 55.835 L 183.207 108.438 L 200.753 108.438 L 200.753 102.589 L 218.263 102.589 L 218.263 120.135 L 212.415 120.135 L 212.415 125.948 L 212.415 125.948 Z  M 200.147 37.754 L 195.475 37.754 L 195.475 33.047 L 200.147 33.047 L 200.147 37.754 L 200.147 37.754 Z  M 210.667 30.729 L 208.349 30.729 L 208.349 28.375 L 210.667 28.375 L 210.667 30.729 L 210.667 30.729 Z  M 187.879 31.299 L 184.384 31.299 L 184.384 27.804 L 187.879 27.804 L 187.879 31.299 L 187.879 31.299 Z  M 177.358 32.476 L 171.509 32.476 L 171.509 26.627 L 177.358 26.627 L 177.358 32.476 L 177.358 32.476 Z  M 175.611 19.031 L 173.257 19.031 L 173.257 16.713 L 175.611 16.713 L 175.611 19.031 L 175.611 19.031 Z  M 199.576 19.637 L 196.045 19.637 L 196.045 16.107 L 199.576 16.107 L 199.576 19.637 L 199.576 19.637 Z  M 212.415 20.779 L 206.566 20.779 L 206.566 14.966 L 212.415 14.966 L 212.415 20.779 L 212.415 20.779 Z  M 187.308 13.183 L 184.954 13.183 L 184.954 10.864 L 187.308 10.864 L 187.308 13.183 L 187.308 13.183 Z  M 252.143 89.75 L 248.648 89.75 L 248.648 86.22 L 252.143 86.22 L 252.143 89.75 L 252.143 89.75 Z  M 269.653 89.75 L 266.158 89.75 L 266.158 86.22 L 269.653 86.22 L 269.653 89.75 L 269.653 89.75 Z  M 235.203 90.321 L 230.531 90.321 L 230.531 85.649 L 235.203 85.649 L 235.203 90.321 L 235.203 90.321 Z  M 229.925 90.892 L 235.774 90.892 L 235.774 85.079 L 229.925 85.079 L 229.925 90.892 L 229.925 90.892 Z  M 241.622 108.438 L 259.168 108.438 L 259.168 90.892 L 253.32 90.892 L 253.32 85.079 L 247.471 85.079 L 247.471 90.892 L 241.622 90.892 L 241.622 108.438 L 241.622 108.438 Z  M 264.982 90.892 L 270.83 90.892 L 270.83 85.079 L 264.982 85.079 L 264.982 90.892 L 264.982 90.892 Z  M 240.446 78.053 L 236.951 78.053 L 236.951 74.558 L 240.446 74.558 L 240.446 78.053 L 240.446 78.053 Z  M 264.411 78.624 L 259.739 78.624 L 259.739 73.952 L 264.411 73.952 L 264.411 78.624 L 264.411 78.624 Z  M 228.178 71.634 L 225.859 71.634 L 225.859 69.28 L 228.178 69.28 L 228.178 71.634 L 228.178 71.634 Z  M 269.653 72.204 L 266.158 72.204 L 266.158 68.709 L 269.653 68.709 L 269.653 72.204 L 269.653 72.204 Z  M 270.83 125.948 L 229.925 125.948 L 229.925 120.135 L 224.112 120.135 L 224.112 79.23 L 229.925 79.23 L 229.925 73.381 L 235.774 73.381 L 235.774 79.23 L 241.622 79.23 L 241.622 73.381 L 247.471 73.381 L 247.471 67.533 L 253.32 67.533 L 253.32 73.381 L 259.168 73.381 L 259.168 79.23 L 264.982 79.23 L 264.982 73.381 L 270.83 73.381 L 270.83 79.23 L 276.679 79.23 L 276.679 120.135 L 270.83 120.135 L 270.83 125.948 L 270.83 125.948 Z  M 235.203 66.962 L 230.531 66.962 L 230.531 62.29 L 235.203 62.29 L 235.203 66.962 L 235.203 66.962 Z  M 275.502 60.507 L 272.007 60.507 L 272.007 57.012 L 275.502 57.012 L 275.502 60.507 L 275.502 60.507 Z  M 245.724 54.088 L 243.37 54.088 L 243.37 51.77 L 245.724 51.77 L 245.724 54.088 L 245.724 54.088 Z  M 258.562 55.265 L 253.89 55.265 L 253.89 50.593 L 258.562 50.593 L 258.562 55.265 L 258.562 55.265 Z  M 269.083 48.239 L 266.765 48.239 L 266.765 45.921 L 269.083 45.921 L 269.083 48.239 L 269.083 48.239 Z  M 234.597 48.845 L 231.102 48.845 L 231.102 45.35 L 234.597 45.35 L 234.597 48.845 L 234.597 48.845 Z  M 287.199 95.599 L 283.669 95.599 L 283.669 92.069 L 287.199 92.069 L 287.199 95.599 L 287.199 95.599 Z  M 310.559 89.75 L 307.064 89.75 L 307.064 86.22 L 310.559 86.22 L 310.559 89.75 L 310.559 89.75 Z  M 300.038 108.438 L 317.584 108.438 L 317.584 90.892 L 311.735 90.892 L 311.735 85.079 L 305.887 85.079 L 305.887 90.892 L 300.038 90.892 L 300.038 108.438 L 300.038 108.438 Z  M 334.524 84.472 L 329.852 84.472 L 329.852 79.801 L 334.524 79.801 L 334.524 84.472 L 334.524 84.472 Z  M 304.71 78.053 L 301.215 78.053 L 301.215 74.558 L 304.71 74.558 L 304.71 78.053 L 304.71 78.053 Z  M 315.801 71.634 L 313.483 71.634 L 313.483 69.28 L 315.801 69.28 L 315.801 71.634 L 315.801 71.634 Z  M 298.861 72.204 L 295.366 72.204 L 295.366 68.709 L 298.861 68.709 L 298.861 72.204 L 298.861 72.204 Z  M 304.71 66.356 L 301.215 66.356 L 301.215 62.861 L 304.71 62.861 L 304.71 66.356 L 304.71 66.356 Z  M 286.593 59.936 L 284.275 59.936 L 284.275 57.618 L 286.593 57.618 L 286.593 59.936 L 286.593 59.936 Z  M 311.129 61.113 L 306.457 61.113 L 306.457 56.441 L 311.129 56.441 L 311.129 61.113 L 311.129 61.113 Z  M 299.467 55.265 L 294.796 55.265 L 294.796 50.593 L 299.467 50.593 L 299.467 55.265 L 299.467 55.265 Z  M 286.593 48.239 L 284.275 48.239 L 284.275 45.921 L 286.593 45.921 L 286.593 48.239 L 286.593 48.239 Z  M 304.139 48.239 L 301.786 48.239 L 301.786 45.921 L 304.139 45.921 L 304.139 48.239 L 304.139 48.239 Z  M 328.675 49.416 L 324.003 49.416 L 324.003 44.744 L 328.675 44.744 L 328.675 49.416 L 328.675 49.416 Z  M 323.397 50.022 L 329.246 50.022 L 329.246 44.173 L 323.397 44.173 L 323.397 50.022 L 323.397 50.022 Z  M 335.095 125.948 L 288.341 125.948 L 288.341 120.135 L 282.528 120.135 L 282.528 96.74 L 288.341 96.74 L 288.341 90.892 L 282.528 90.892 L 282.528 79.23 L 288.341 79.23 L 288.341 73.381 L 300.038 73.381 L 300.038 79.23 L 305.887 79.23 L 305.887 73.381 L 317.584 73.381 L 317.584 38.325 L 335.095 38.325 L 335.095 79.23 L 329.246 79.23 L 329.246 85.079 L 335.095 85.079 L 335.095 125.948 L 335.095 125.948 Z  M 333.347 30.729 L 330.993 30.729 L 330.993 28.375 L 333.347 28.375 L 333.347 30.729 L 333.347 30.729 Z  M 322.256 31.299 L 318.725 31.299 L 318.725 27.804 L 322.256 27.804 L 322.256 31.299 L 322.256 31.299 Z  M 328.675 26.057 L 324.003 26.057 L 324.003 21.385 L 328.675 21.385 L 328.675 26.057 L 328.675 26.057 Z  M 321.65 19.031 L 319.332 19.031 L 319.332 16.713 L 321.65 16.713 L 321.65 19.031 L 321.65 19.031 Z  M 352.034 90.321 L 347.363 90.321 L 347.363 85.649 L 352.034 85.649 L 352.034 90.321 L 352.034 90.321 Z  M 387.091 90.321 L 382.419 90.321 L 382.419 85.649 L 387.091 85.649 L 387.091 90.321 L 387.091 90.321 Z  M 381.813 90.892 L 387.661 90.892 L 387.661 85.079 L 381.813 85.079 L 381.813 90.892 L 381.813 90.892 Z  M 346.756 90.892 L 352.605 90.892 L 352.605 85.079 L 346.756 85.079 L 346.756 90.892 L 346.756 90.892 Z  M 358.454 96.74 L 376 96.74 L 376 90.892 L 358.454 90.892 L 358.454 96.74 L 358.454 96.74 Z  M 393.51 90.892 L 387.661 90.892 L 387.661 96.74 L 393.51 96.74 L 393.51 102.589 L 358.454 102.589 L 358.454 108.438 L 393.51 108.438 L 393.51 120.135 L 387.661 120.135 L 387.661 125.948 L 346.756 125.948 L 346.756 120.135 L 340.943 120.135 L 340.943 79.23 L 346.756 79.23 L 346.756 73.381 L 352.605 73.381 L 352.605 79.23 L 358.454 79.23 L 358.454 73.381 L 364.302 73.381 L 364.302 79.23 L 370.151 79.23 L 370.151 73.381 L 376 73.381 L 376 67.533 L 381.813 67.533 L 381.813 73.381 L 387.661 73.381 L 387.661 79.23 L 393.51 79.23 L 393.51 90.892 L 393.51 90.892 Z  M 368.404 48.239 L 366.05 48.239 L 366.05 45.921 L 368.404 45.921 L 368.404 48.239 L 368.404 48.239 Z  M 350.857 48.239 L 348.504 48.239 L 348.504 45.921 L 350.857 45.921 L 350.857 48.239 L 350.857 48.239 Z  M 387.091 55.265 L 382.419 55.265 L 382.419 50.593 L 387.091 50.593 L 387.091 55.265 L 387.091 55.265 Z  M 374.823 54.694 L 371.292 54.694 L 371.292 51.163 L 374.823 51.163 L 374.823 54.694 L 374.823 54.694 Z  M 363.696 61.113 L 359.024 61.113 L 359.024 56.441 L 363.696 56.441 L 363.696 61.113 L 363.696 61.113 Z  M 351.428 60.507 L 347.933 60.507 L 347.933 57.012 L 351.428 57.012 L 351.428 60.507 L 351.428 60.507 Z  M 374.217 65.785 L 371.898 65.785 L 371.898 63.431 L 374.217 63.431 L 374.217 65.785 L 374.217 65.785 Z  M 346.186 72.811 L 341.514 72.811 L 341.514 68.103 L 346.186 68.103 L 346.186 72.811 L 346.186 72.811 Z  M 392.333 72.204 L 388.838 72.204 L 388.838 68.709 L 392.333 68.709 L 392.333 72.204 L 392.333 72.204 Z  M 363.125 72.204 L 359.631 72.204 L 359.631 68.709 L 363.125 68.709 L 363.125 72.204 L 363.125 72.204 Z  M 369.545 78.624 L 364.873 78.624 L 364.873 73.952 L 369.545 73.952 L 369.545 78.624 L 369.545 78.624 Z  M 357.277 78.053 L 353.782 78.053 L 353.782 74.558 L 357.277 74.558 L 357.277 78.053 L 357.277 78.053 Z  M 392.333 95.599 L 388.838 95.599 L 388.838 92.069 L 392.333 92.069 L 392.333 95.599 L 392.333 95.599 Z " fill="rgb(0,0,0)"/><path d=" M 89.146 79.937 L 89.146 79.937 L 92.494 79.937 L 92.494 79.937 Q 94.527 79.937 96.38 80.295 L 96.38 80.295 L 96.38 80.295 Q 98.234 80.654 98.234 82.926 L 98.234 82.926 L 98.234 82.926 Q 99.071 87.709 92.614 87.589 L 92.614 87.589 L 92.614 87.589 Q 90.82 87.47 89.325 87.35 L 89.325 87.35 L 89.325 87.35 Q 87.831 87.231 86.874 87.29 L 86.874 87.29 L 86.874 87.29 Q 85.917 87.35 86.037 87.948 L 86.037 87.948 L 86.037 87.948 Q 87.233 91.416 88.608 95.72 L 88.608 95.72 L 88.608 95.72 Q 89.983 100.025 91.657 104.33 L 91.657 104.33 L 91.657 104.33 Q 95.962 114.972 99.788 119.635 L 99.788 119.635 L 99.788 119.635 Q 97.755 122.146 95.065 123.82 L 95.065 123.82 L 95.065 123.82 Q 92.374 125.494 92.195 125.494 L 92.195 125.494 L 92.195 125.494 Q 92.016 125.494 91.896 125.375 L 91.896 125.375 L 75.036 89.861 L 42.393 97.873 L 41.197 102.895 L 41.197 102.895 Q 37.729 116.646 33.425 122.027 L 33.425 122.027 L 33.425 122.027 Q 32.707 123.222 30.435 122.266 L 30.435 122.266 L 30.435 122.266 Q 26.609 120.831 26.609 119.874 L 26.609 119.874 L 26.609 119.874 Q 26.609 119.635 29.12 112.939 L 29.12 112.939 L 29.12 112.939 Q 31.631 106.243 34.202 99.367 L 34.202 99.367 L 34.202 99.367 Q 36.773 92.492 39.583 84.959 L 39.583 84.959 L 39.583 84.959 Q 42.393 77.426 44.904 70.61 L 44.904 70.61 L 44.904 70.61 Q 47.415 63.794 49.448 58.354 L 49.448 58.354 L 49.448 58.354 Q 51.48 52.913 52.317 50.462 L 52.317 50.462 L 52.317 50.462 Q 53.154 48.01 53.453 46.157 L 53.453 46.157 L 53.453 46.157 Q 53.752 44.304 54.35 42.988 L 54.35 42.988 L 54.35 42.988 Q 55.546 40.238 60.329 40.238 L 60.329 40.238 L 60.329 40.238 Q 65.47 43.108 68.28 47.712 L 68.28 47.712 L 68.28 47.712 Q 71.09 52.315 73.063 57.576 L 73.063 57.576 L 73.063 57.576 Q 75.036 62.838 76.949 68.218 L 76.949 68.218 L 76.949 68.218 Q 78.863 73.599 82.091 78.023 L 82.091 78.023 L 82.091 78.023 Q 83.167 79.697 85.32 79.817 L 85.32 79.817 L 85.32 79.817 Q 87.472 79.937 89.146 79.937 Z  M 59.253 54.109 L 59.253 54.109 L 59.253 54.109 Q 58.296 61.403 54.948 69.055 L 54.948 69.055 L 54.948 69.055 Q 51.6 76.708 49.567 80.953 L 49.567 80.953 L 49.567 80.953 Q 47.534 85.198 46.099 88.785 L 46.099 88.785 L 46.099 88.785 Q 54.23 88.785 66.068 84.002 L 66.068 84.002 L 66.068 84.002 Q 69.058 82.687 71.808 81.611 L 71.808 81.611 L 71.808 81.611 Q 66.188 57.576 59.253 54.109 Z  M 146.063 92.851 L 146.063 92.851 L 146.063 92.851 Q 159.216 92.851 159.216 99.547 L 159.216 99.547 L 159.216 99.547 Q 159.216 104.569 151.922 111.265 L 151.922 111.265 L 151.922 111.265 Q 141.041 121.19 122.627 127.168 L 122.627 127.168 L 122.627 127.168 Q 121.79 127.168 120.773 125.494 L 120.773 125.494 L 120.773 125.494 Q 119.757 123.82 119.219 122.923 L 119.219 122.923 L 119.219 122.923 Q 118.681 122.027 118.442 121.787 L 118.442 121.787 L 118.442 121.787 Q 132.193 117.244 141.041 110.787 L 141.041 110.787 L 141.041 110.787 Q 147.02 106.482 147.02 103.732 L 147.02 103.732 L 147.02 103.732 Q 147.02 100.982 139.965 100.982 L 139.965 100.982 L 139.965 100.982 Q 132.91 100.982 119.279 104.33 L 119.279 104.33 L 119.279 104.33 Q 113.061 104.091 108.517 99.905 L 108.517 99.905 L 108.517 99.905 Q 104.571 96.199 104.571 92.432 L 104.571 92.432 L 104.571 92.432 Q 104.571 88.666 106.723 85.497 L 106.723 85.497 L 106.723 85.497 Q 108.876 82.328 112.463 79.578 L 112.463 79.578 L 112.463 79.578 Q 116.05 76.828 120.833 74.556 L 120.833 74.556 L 120.833 74.556 Q 132.551 68.936 145.106 68.936 L 145.106 68.936 L 145.106 68.936 Q 148.813 68.936 152.281 69.653 L 152.281 69.653 L 152.281 69.653 Q 155.151 69.653 155.629 72.164 L 155.629 72.164 L 155.629 72.164 Q 156.107 74.675 156.107 80.415 L 156.107 80.415 L 156.107 80.415 Q 149.052 77.186 140.204 77.186 L 140.204 77.186 L 140.204 77.186 Q 129.203 77.186 122.029 81.611 L 122.029 81.611 L 122.029 81.611 Q 114.615 85.915 114.376 92.851 L 114.376 92.851 L 114.376 92.851 Q 114.376 96.199 119.279 96.199 L 119.279 96.199 L 128.007 95.242 L 128.007 95.242 Q 139.247 92.851 146.063 92.851 Z " fill="rgb(170,0,170)"/></g><path d=" M 395.718 147.67 L 395.718 147.67 L 393.345 147.67 L 393.345 147.67 Q 391.92 147.67 391.154 146.811 L 391.154 146.811 L 391.154 146.811 Q 390.387 145.953 390.387 144.31 L 390.387 144.31 L 390.387 143.47 L 390.387 143.47 Q 390.387 142.886 390.825 142.886 L 390.825 142.886 L 391.154 142.886 L 391.154 142.886 Q 391.628 142.886 391.628 143.47 L 391.628 143.47 L 391.628 144.273 L 391.628 144.273 Q 391.628 146.355 393.345 146.355 L 393.345 146.355 L 395.718 146.355 L 395.718 146.355 Q 397.471 146.355 397.471 144.273 L 397.471 144.273 L 397.471 143.251 L 397.471 143.251 Q 397.471 142.447 396.85 141.9 L 396.85 141.9 L 396.85 141.9 Q 396.23 141.352 395.207 141.096 L 395.207 141.096 L 395.207 141.096 Q 394.404 140.914 393.6 140.713 L 393.6 140.713 L 393.6 140.713 Q 392.797 140.512 392.067 140.11 L 392.067 140.11 L 392.067 140.11 Q 391.336 139.709 390.861 139.106 L 390.861 139.106 L 390.861 139.106 Q 390.387 138.503 390.387 137.554 L 390.387 137.554 L 390.387 136.276 L 390.387 136.276 Q 390.387 134.742 391.172 133.829 L 391.172 133.829 L 391.172 133.829 Q 391.957 132.916 393.345 132.916 L 393.345 132.916 L 395.718 132.916 L 395.718 132.916 Q 397.106 132.916 397.891 133.829 L 397.891 133.829 L 397.891 133.829 Q 398.676 134.742 398.676 136.276 L 398.676 136.276 L 398.676 136.86 L 398.676 136.86 Q 398.676 137.481 398.202 137.481 L 398.202 137.481 L 397.946 137.481 L 397.946 137.481 Q 397.471 137.481 397.471 136.86 L 397.471 136.86 L 397.471 136.276 L 397.471 136.276 Q 397.471 134.231 395.718 134.231 L 395.718 134.231 L 393.345 134.231 L 393.345 134.231 Q 391.628 134.231 391.628 136.276 L 391.628 136.276 L 391.628 137.517 L 391.628 137.517 Q 391.628 138.138 392.103 138.631 L 392.103 138.631 L 392.103 138.631 Q 392.578 139.124 393.819 139.416 L 393.819 139.416 L 393.819 139.416 Q 394.659 139.599 395.444 139.8 L 395.444 139.8 L 395.444 139.8 Q 396.23 140.001 396.997 140.439 L 396.997 140.439 L 396.997 140.439 Q 397.727 140.841 398.202 141.48 L 398.202 141.48 L 398.202 141.48 Q 398.676 142.119 398.676 143.178 L 398.676 143.178 L 398.676 144.31 L 398.676 144.31 Q 398.676 145.953 397.909 146.811 L 397.909 146.811 L 397.909 146.811 Q 397.143 147.67 395.718 147.67 Z  M 410.034 133.61 L 406.126 142.009 L 406.126 147.158 L 406.126 147.158 Q 406.126 147.67 405.615 147.67 L 405.615 147.67 L 405.359 147.67 L 405.359 147.67 Q 405.104 147.67 405.012 147.505 L 405.012 147.505 L 405.012 147.505 Q 404.921 147.341 404.921 147.158 L 404.921 147.158 L 404.921 142.009 L 400.977 133.646 L 400.977 133.646 Q 400.868 133.427 400.922 133.172 L 400.922 133.172 L 400.922 133.172 Q 400.977 132.916 401.342 132.916 L 401.342 132.916 L 401.707 132.916 L 401.707 132.916 Q 401.963 132.916 402.146 133.172 L 402.146 133.172 L 402.255 133.318 L 405.505 140.439 L 408.792 133.281 L 408.792 133.281 Q 408.865 133.135 408.975 133.062 L 408.975 133.062 L 408.975 133.062 Q 409.048 132.989 409.102 132.953 L 409.102 132.953 L 409.102 132.953 Q 409.157 132.916 409.34 132.916 L 409.34 132.916 L 409.632 132.916 L 409.632 132.916 Q 409.997 132.916 410.052 133.135 L 410.052 133.135 L 410.052 133.135 Q 410.107 133.354 410.034 133.61 L 410.034 133.61 L 410.034 133.61 Z  M 420.661 147.67 L 420.661 147.67 L 420.442 147.67 L 420.442 147.67 Q 420.149 147.67 419.93 147.341 L 419.93 147.341 L 413.868 135.911 L 413.868 147.158 L 413.868 147.158 Q 413.868 147.341 413.74 147.505 L 413.74 147.505 L 413.74 147.505 Q 413.613 147.67 413.357 147.67 L 413.357 147.67 L 413.101 147.67 L 413.101 147.67 Q 412.59 147.67 412.59 147.158 L 412.59 147.158 L 412.59 133.464 L 412.59 133.464 Q 412.59 132.916 413.101 132.916 L 413.101 132.916 L 413.357 132.916 L 413.357 132.916 Q 413.722 132.916 413.722 133.135 L 413.722 133.135 L 419.93 144.602 L 419.93 133.464 L 419.93 133.464 Q 419.93 133.281 420.022 133.099 L 420.022 133.099 L 420.022 133.099 Q 420.113 132.916 420.368 132.916 L 420.368 132.916 L 420.661 132.916 L 420.661 132.916 Q 420.916 132.916 421.026 133.099 L 421.026 133.099 L 421.026 133.099 Q 421.135 133.281 421.135 133.464 L 421.135 133.464 L 421.135 147.158 L 421.135 147.158 Q 421.135 147.341 421.026 147.505 L 421.026 147.505 L 421.026 147.505 Q 420.916 147.67 420.661 147.67 Z  M 431.105 134.231 L 431.105 134.231 L 428.22 134.231 L 428.22 147.158 L 428.22 147.158 Q 428.22 147.341 428.092 147.505 L 428.092 147.505 L 428.092 147.505 Q 427.964 147.67 427.709 147.67 L 427.709 147.67 L 427.49 147.67 L 427.49 147.67 Q 427.234 147.67 427.124 147.505 L 427.124 147.505 L 427.124 147.505 Q 427.015 147.341 427.015 147.158 L 427.015 147.158 L 427.015 134.231 L 424.093 134.231 L 424.093 134.231 Q 423.911 134.231 423.765 134.121 L 423.765 134.121 L 423.765 134.121 Q 423.619 134.012 423.619 133.72 L 423.619 133.72 L 423.619 133.427 L 423.619 133.427 Q 423.619 132.916 424.093 132.916 L 424.093 132.916 L 431.105 132.916 L 431.105 132.916 Q 431.58 132.916 431.58 133.427 L 431.58 133.427 L 431.58 133.72 L 431.58 133.72 Q 431.58 134.231 431.105 134.231 Z  M 442.681 147.67 L 442.681 147.67 L 442.353 147.67 L 442.353 147.67 Q 442.134 147.67 442.024 147.524 L 442.024 147.524 L 442.024 147.524 Q 441.914 147.377 441.841 147.158 L 441.841 147.158 L 440.746 143.726 L 435.487 143.726 L 434.319 147.231 L 434.319 147.231 Q 434.136 147.67 433.807 147.67 L 433.807 147.67 L 433.552 147.67 L 433.552 147.67 Q 433.296 147.67 433.168 147.451 L 433.168 147.451 L 433.168 147.451 Q 433.04 147.231 433.113 147.012 L 433.113 147.012 L 437.35 133.427 L 437.459 133.208 L 437.459 133.208 Q 437.496 133.172 437.496 133.153 L 437.496 133.153 L 437.496 133.153 Q 437.496 133.135 437.532 133.099 L 437.532 133.099 L 437.532 133.099 Q 437.678 132.916 437.861 132.916 L 437.861 132.916 L 438.336 132.916 L 438.336 132.916 Q 438.701 132.916 438.883 133.354 L 438.883 133.354 L 443.12 147.012 L 443.12 147.012 Q 443.193 147.231 443.065 147.451 L 443.065 147.451 L 443.065 147.451 Q 442.937 147.67 442.681 147.67 Z  M 440.271 142.301 L 438.08 134.888 L 438.08 134.888 Q 437.496 137.116 436.93 139.051 L 436.93 139.051 L 436.93 139.051 Q 436.364 140.987 435.962 142.301 L 435.962 142.301 L 440.271 142.301 L 440.271 142.301 Z  M 453.564 147.67 L 453.564 147.67 L 453.235 147.67 L 453.235 147.67 Q 453.162 147.67 453.016 147.615 L 453.016 147.615 L 453.016 147.615 Q 452.87 147.56 452.688 147.377 L 452.688 147.377 L 449.437 141.023 L 446.187 147.377 L 446.187 147.377 Q 446.005 147.56 445.859 147.615 L 445.859 147.615 L 445.859 147.615 Q 445.712 147.67 445.639 147.67 L 445.639 147.67 L 445.311 147.67 L 445.311 147.67 Q 445.019 147.67 444.909 147.432 L 444.909 147.432 L 444.909 147.432 Q 444.799 147.195 444.982 146.903 L 444.982 146.903 L 448.67 139.891 L 445.201 133.683 L 445.201 133.683 Q 445.055 133.354 445.11 133.135 L 445.11 133.135 L 445.11 133.135 Q 445.165 132.916 445.566 132.916 L 445.566 132.916 L 445.859 132.916 L 445.859 132.916 Q 446.224 132.916 446.443 133.318 L 446.443 133.318 L 449.437 138.723 L 452.468 133.318 L 452.468 133.318 Q 452.614 133.099 452.688 133.026 L 452.688 133.026 L 452.688 133.026 Q 452.797 132.916 452.98 132.916 L 452.98 132.916 L 453.308 132.916 L 453.308 132.916 Q 453.674 132.916 453.747 133.135 L 453.747 133.135 L 453.747 133.135 Q 453.82 133.354 453.637 133.683 L 453.637 133.683 L 450.204 139.891 L 453.966 146.976 L 453.966 147.158 L 453.966 147.158 Q 453.966 147.67 453.564 147.67 Z  M 282.437 147.67 L 282.437 147.67 L 282.109 147.67 L 282.109 147.67 Q 281.89 147.67 281.78 147.524 L 281.78 147.524 L 281.78 147.524 Q 281.671 147.377 281.598 147.158 L 281.598 147.158 L 280.502 143.726 L 275.243 143.726 L 274.075 147.231 L 274.075 147.231 Q 273.892 147.67 273.563 147.67 L 273.563 147.67 L 273.308 147.67 L 273.308 147.67 Q 273.052 147.67 272.924 147.451 L 272.924 147.451 L 272.924 147.451 Q 272.797 147.231 272.87 147.012 L 272.87 147.012 L 277.106 133.427 L 277.215 133.208 L 277.215 133.208 Q 277.252 133.172 277.252 133.153 L 277.252 133.153 L 277.252 133.153 Q 277.252 133.135 277.288 133.099 L 277.288 133.099 L 277.288 133.099 Q 277.434 132.916 277.617 132.916 L 277.617 132.916 L 278.092 132.916 L 278.092 132.916 Q 278.457 132.916 278.64 133.354 L 278.64 133.354 L 282.876 147.012 L 282.876 147.012 Q 282.949 147.231 282.821 147.451 L 282.821 147.451 L 282.821 147.451 Q 282.693 147.67 282.437 147.67 Z  M 280.027 142.301 L 277.836 134.888 L 277.836 134.888 Q 277.252 137.116 276.686 139.051 L 276.686 139.051 L 276.686 139.051 Q 276.12 140.987 275.718 142.301 L 275.718 142.301 L 280.027 142.301 L 280.027 142.301 Z  M 291.896 147.67 L 291.896 147.67 L 285.797 147.67 L 285.797 147.67 Q 285.322 147.67 285.322 147.158 L 285.322 147.158 L 285.322 133.464 L 285.322 133.464 Q 285.322 133.245 285.432 133.08 L 285.432 133.08 L 285.432 133.08 Q 285.542 132.916 285.797 132.916 L 285.797 132.916 L 286.053 132.916 L 286.053 132.916 Q 286.345 132.916 286.455 133.099 L 286.455 133.099 L 286.455 133.099 Q 286.564 133.281 286.564 133.464 L 286.564 133.464 L 286.564 146.318 L 291.896 146.318 L 291.896 146.318 Q 292.078 146.318 292.206 146.483 L 292.206 146.483 L 292.206 146.483 Q 292.334 146.647 292.334 146.83 L 292.334 146.83 L 292.334 147.158 L 292.334 147.158 Q 292.334 147.414 292.206 147.542 L 292.206 147.542 L 292.206 147.542 Q 292.078 147.67 291.896 147.67 Z  M 301.683 134.231 L 301.683 134.231 L 298.798 134.231 L 298.798 147.158 L 298.798 147.158 Q 298.798 147.341 298.67 147.505 L 298.67 147.505 L 298.67 147.505 Q 298.542 147.67 298.287 147.67 L 298.287 147.67 L 298.067 147.67 L 298.067 147.67 Q 297.812 147.67 297.702 147.505 L 297.702 147.505 L 297.702 147.505 Q 297.593 147.341 297.593 147.158 L 297.593 147.158 L 297.593 134.231 L 294.671 134.231 L 294.671 134.231 Q 294.489 134.231 294.343 134.121 L 294.343 134.121 L 294.343 134.121 Q 294.196 134.012 294.196 133.72 L 294.196 133.72 L 294.196 133.427 L 294.196 133.427 Q 294.196 132.916 294.671 132.916 L 294.671 132.916 L 301.683 132.916 L 301.683 132.916 Q 302.158 132.916 302.158 133.427 L 302.158 133.427 L 302.158 133.72 L 302.158 133.72 Q 302.158 134.231 301.683 134.231 Z  M 310.995 147.67 L 310.995 147.67 L 305.152 147.67 L 305.152 147.67 Q 304.714 147.67 304.714 147.158 L 304.714 147.158 L 304.714 133.464 L 304.714 133.464 Q 304.714 132.916 305.152 132.916 L 305.152 132.916 L 310.995 132.916 L 310.995 132.916 Q 311.47 132.916 311.47 133.427 L 311.47 133.427 L 311.47 133.72 L 311.47 133.72 Q 311.47 133.975 311.305 134.103 L 311.305 134.103 L 311.305 134.103 Q 311.141 134.231 310.995 134.231 L 310.995 134.231 L 305.882 134.231 L 305.882 139.489 L 310.52 139.489 L 310.52 139.489 Q 310.666 139.489 310.831 139.617 L 310.831 139.617 L 310.831 139.617 Q 310.995 139.745 310.995 140.037 L 310.995 140.037 L 310.995 140.293 L 310.995 140.293 Q 310.995 140.804 310.52 140.804 L 310.52 140.804 L 305.882 140.804 L 305.882 146.355 L 310.995 146.355 L 310.995 146.355 Q 311.47 146.355 311.47 146.866 L 311.47 146.866 L 311.47 147.158 L 311.47 147.158 Q 311.47 147.414 311.305 147.542 L 311.305 147.542 L 311.305 147.542 Q 311.141 147.67 310.995 147.67 Z  M 322.352 147.67 L 322.352 147.67 L 321.951 147.67 L 321.951 147.67 Q 321.585 147.67 321.476 147.377 L 321.476 147.377 L 319.139 141.754 L 315.889 141.754 L 315.889 147.158 L 315.889 147.158 Q 315.889 147.67 315.341 147.67 L 315.341 147.67 L 315.122 147.67 L 315.122 147.67 Q 314.939 147.67 314.775 147.578 L 314.775 147.578 L 314.775 147.578 Q 314.61 147.487 314.61 147.158 L 314.61 147.158 L 314.61 133.427 L 314.61 133.427 Q 314.61 132.916 315.122 132.916 L 315.122 132.916 L 319.504 132.916 L 319.504 132.916 Q 320.928 132.916 321.713 133.774 L 321.713 133.774 L 321.713 133.774 Q 322.498 134.632 322.498 136.276 L 322.498 136.276 L 322.498 138.394 L 322.498 138.394 Q 322.498 139.599 322.005 140.384 L 322.005 140.384 L 322.005 140.384 Q 321.512 141.169 320.38 141.681 L 320.38 141.681 L 322.681 146.976 L 322.681 146.976 Q 322.718 147.122 322.736 147.396 L 322.736 147.396 L 322.736 147.396 Q 322.754 147.67 322.352 147.67 Z  M 321.293 138.394 L 321.293 136.276 L 321.293 136.276 Q 321.293 134.194 319.504 134.194 L 319.504 134.194 L 315.889 134.194 L 315.889 140.439 L 319.504 140.439 L 319.504 140.439 Q 321.293 140.439 321.293 138.394 L 321.293 138.394 L 321.293 138.394 Z  M 333.819 147.67 L 333.819 147.67 L 333.6 147.67 L 333.6 147.67 Q 333.308 147.67 333.089 147.341 L 333.089 147.341 L 327.027 135.911 L 327.027 147.158 L 327.027 147.158 Q 327.027 147.341 326.899 147.505 L 326.899 147.505 L 326.899 147.505 Q 326.771 147.67 326.515 147.67 L 326.515 147.67 L 326.26 147.67 L 326.26 147.67 Q 325.749 147.67 325.749 147.158 L 325.749 147.158 L 325.749 133.464 L 325.749 133.464 Q 325.749 132.916 326.26 132.916 L 326.26 132.916 L 326.515 132.916 L 326.515 132.916 Q 326.881 132.916 326.881 133.135 L 326.881 133.135 L 333.089 144.602 L 333.089 133.464 L 333.089 133.464 Q 333.089 133.281 333.18 133.099 L 333.18 133.099 L 333.18 133.099 Q 333.271 132.916 333.527 132.916 L 333.527 132.916 L 333.819 132.916 L 333.819 132.916 Q 334.075 132.916 334.184 133.099 L 334.184 133.099 L 334.184 133.099 Q 334.294 133.281 334.294 133.464 L 334.294 133.464 L 334.294 147.158 L 334.294 147.158 Q 334.294 147.341 334.184 147.505 L 334.184 147.505 L 334.184 147.505 Q 334.075 147.67 333.819 147.67 Z  M 346.382 147.67 L 346.382 147.67 L 346.053 147.67 L 346.053 147.67 Q 345.834 147.67 345.724 147.524 L 345.724 147.524 L 345.724 147.524 Q 345.615 147.377 345.542 147.158 L 345.542 147.158 L 344.446 143.726 L 339.187 143.726 L 338.019 147.231 L 338.019 147.231 Q 337.836 147.67 337.508 147.67 L 337.508 147.67 L 337.252 147.67 L 337.252 147.67 Q 336.996 147.67 336.869 147.451 L 336.869 147.451 L 336.869 147.451 Q 336.741 147.231 336.814 147.012 L 336.814 147.012 L 341.05 133.427 L 341.159 133.208 L 341.159 133.208 Q 341.196 133.172 341.196 133.153 L 341.196 133.153 L 341.196 133.153 Q 341.196 133.135 341.233 133.099 L 341.233 133.099 L 341.233 133.099 Q 341.379 132.916 341.561 132.916 L 341.561 132.916 L 342.036 132.916 L 342.036 132.916 Q 342.401 132.916 342.584 133.354 L 342.584 133.354 L 346.82 147.012 L 346.82 147.012 Q 346.893 147.231 346.765 147.451 L 346.765 147.451 L 346.765 147.451 Q 346.637 147.67 346.382 147.67 Z  M 343.971 142.301 L 341.78 134.888 L 341.78 134.888 Q 341.196 137.116 340.63 139.051 L 340.63 139.051 L 340.63 139.051 Q 340.064 140.987 339.662 142.301 L 339.662 142.301 L 343.971 142.301 L 343.971 142.301 Z  M 355.95 134.231 L 355.95 134.231 L 353.065 134.231 L 353.065 147.158 L 353.065 147.158 Q 353.065 147.341 352.937 147.505 L 352.937 147.505 L 352.937 147.505 Q 352.809 147.67 352.553 147.67 L 352.553 147.67 L 352.334 147.67 L 352.334 147.67 Q 352.079 147.67 351.969 147.505 L 351.969 147.505 L 351.969 147.505 Q 351.859 147.341 351.859 147.158 L 351.859 147.158 L 351.859 134.231 L 348.938 134.231 L 348.938 134.231 Q 348.755 134.231 348.609 134.121 L 348.609 134.121 L 348.609 134.121 Q 348.463 134.012 348.463 133.72 L 348.463 133.72 L 348.463 133.427 L 348.463 133.427 Q 348.463 132.916 348.938 132.916 L 348.938 132.916 L 355.95 132.916 L 355.95 132.916 Q 356.424 132.916 356.424 133.427 L 356.424 133.427 L 356.424 133.72 L 356.424 133.72 Q 356.424 134.231 355.95 134.231 Z  M 359.273 147.67 L 359.273 147.67 L 358.981 147.67 L 358.981 147.67 Q 358.798 147.67 358.688 147.487 L 358.688 147.487 L 358.688 147.487 Q 358.579 147.304 358.579 147.122 L 358.579 147.122 L 358.579 133.464 L 358.579 133.464 Q 358.579 132.916 358.981 132.916 L 358.981 132.916 L 359.273 132.916 L 359.273 132.916 Q 359.747 132.916 359.747 133.464 L 359.747 133.464 L 359.747 147.122 L 359.747 147.122 Q 359.747 147.67 359.273 147.67 Z  M 371.397 133.5 L 367.526 147.231 L 367.526 147.231 Q 367.453 147.414 367.343 147.542 L 367.343 147.542 L 367.343 147.542 Q 367.234 147.67 367.051 147.67 L 367.051 147.67 L 366.54 147.67 L 366.54 147.67 Q 366.211 147.67 366.102 147.377 L 366.102 147.377 L 366.102 147.377 Q 366.102 147.304 366.083 147.286 L 366.083 147.286 L 366.083 147.286 Q 366.065 147.268 366.065 147.231 L 366.065 147.231 L 362.158 133.5 L 362.158 133.5 Q 362.085 133.318 362.176 133.117 L 362.176 133.117 L 362.176 133.117 Q 362.267 132.916 362.559 132.916 L 362.559 132.916 L 362.888 132.916 L 362.888 132.916 Q 363.107 132.916 363.18 133.044 L 363.18 133.044 L 363.18 133.044 Q 363.253 133.172 363.326 133.354 L 363.326 133.354 L 366.796 145.259 L 370.192 133.427 L 370.301 133.208 L 370.301 133.135 L 370.338 133.099 L 370.411 133.026 L 370.411 133.026 Q 370.484 132.916 370.667 132.916 L 370.667 132.916 L 371.032 132.916 L 371.032 132.916 Q 371.324 132.916 371.397 133.117 L 371.397 133.117 L 371.397 133.117 Q 371.47 133.318 371.397 133.5 L 371.397 133.5 L 371.397 133.5 Z  M 380.417 147.67 L 380.417 147.67 L 374.574 147.67 L 374.574 147.67 Q 374.136 147.67 374.136 147.158 L 374.136 147.158 L 374.136 133.464 L 374.136 133.464 Q 374.136 132.916 374.574 132.916 L 374.574 132.916 L 380.417 132.916 L 380.417 132.916 Q 380.892 132.916 380.892 133.427 L 380.892 133.427 L 380.892 133.72 L 380.892 133.72 Q 380.892 133.975 380.727 134.103 L 380.727 134.103 L 380.727 134.103 Q 380.563 134.231 380.417 134.231 L 380.417 134.231 L 375.304 134.231 L 375.304 139.489 L 379.942 139.489 L 379.942 139.489 Q 380.088 139.489 380.253 139.617 L 380.253 139.617 L 380.253 139.617 Q 380.417 139.745 380.417 140.037 L 380.417 140.037 L 380.417 140.293 L 380.417 140.293 Q 380.417 140.804 379.942 140.804 L 379.942 140.804 L 375.304 140.804 L 375.304 146.355 L 380.417 146.355 L 380.417 146.355 Q 380.892 146.355 380.892 146.866 L 380.892 146.866 L 380.892 147.158 L 380.892 147.158 Q 380.892 147.414 380.727 147.542 L 380.727 147.542 L 380.727 147.542 Q 380.563 147.67 380.417 147.67 Z  M 173.721 134.231 L 173.721 134.231 L 170.836 134.231 L 170.836 147.158 L 170.836 147.158 Q 170.836 147.341 170.709 147.505 L 170.709 147.505 L 170.709 147.505 Q 170.581 147.67 170.325 147.67 L 170.325 147.67 L 170.106 147.67 L 170.106 147.67 Q 169.85 147.67 169.741 147.505 L 169.741 147.505 L 169.741 147.505 Q 169.631 147.341 169.631 147.158 L 169.631 147.158 L 169.631 134.231 L 166.71 134.231 L 166.71 134.231 Q 166.527 134.231 166.381 134.121 L 166.381 134.121 L 166.381 134.121 Q 166.235 134.012 166.235 133.72 L 166.235 133.72 L 166.235 133.427 L 166.235 133.427 Q 166.235 132.916 166.71 132.916 L 166.71 132.916 L 173.721 132.916 L 173.721 132.916 Q 174.196 132.916 174.196 133.427 L 174.196 133.427 L 174.196 133.72 L 174.196 133.72 Q 174.196 134.231 173.721 134.231 Z  M 183.034 147.67 L 183.034 147.67 L 177.191 147.67 L 177.191 147.67 Q 176.752 147.67 176.752 147.158 L 176.752 147.158 L 176.752 133.464 L 176.752 133.464 Q 176.752 132.916 177.191 132.916 L 177.191 132.916 L 183.034 132.916 L 183.034 132.916 Q 183.508 132.916 183.508 133.427 L 183.508 133.427 L 183.508 133.72 L 183.508 133.72 Q 183.508 133.975 183.344 134.103 L 183.344 134.103 L 183.344 134.103 Q 183.18 134.231 183.034 134.231 L 183.034 134.231 L 177.921 134.231 L 177.921 139.489 L 182.559 139.489 L 182.559 139.489 Q 182.705 139.489 182.869 139.617 L 182.869 139.617 L 182.869 139.617 Q 183.034 139.745 183.034 140.037 L 183.034 140.037 L 183.034 140.293 L 183.034 140.293 Q 183.034 140.804 182.559 140.804 L 182.559 140.804 L 177.921 140.804 L 177.921 146.355 L 183.034 146.355 L 183.034 146.355 Q 183.508 146.355 183.508 146.866 L 183.508 146.866 L 183.508 147.158 L 183.508 147.158 Q 183.508 147.414 183.344 147.542 L 183.344 147.542 L 183.344 147.542 Q 183.18 147.67 183.034 147.67 Z  M 194.391 147.67 L 194.391 147.67 L 193.989 147.67 L 193.989 147.67 Q 193.624 147.67 193.514 147.377 L 193.514 147.377 L 191.177 141.754 L 187.927 141.754 L 187.927 147.158 L 187.927 147.158 Q 187.927 147.67 187.379 147.67 L 187.379 147.67 L 187.16 147.67 L 187.16 147.67 Q 186.978 147.67 186.813 147.578 L 186.813 147.578 L 186.813 147.578 Q 186.649 147.487 186.649 147.158 L 186.649 147.158 L 186.649 133.427 L 186.649 133.427 Q 186.649 132.916 187.16 132.916 L 187.16 132.916 L 191.542 132.916 L 191.542 132.916 Q 192.967 132.916 193.752 133.774 L 193.752 133.774 L 193.752 133.774 Q 194.537 134.632 194.537 136.276 L 194.537 136.276 L 194.537 138.394 L 194.537 138.394 Q 194.537 139.599 194.044 140.384 L 194.044 140.384 L 194.044 140.384 Q 193.551 141.169 192.419 141.681 L 192.419 141.681 L 194.72 146.976 L 194.72 146.976 Q 194.756 147.122 194.774 147.396 L 194.774 147.396 L 194.774 147.396 Q 194.793 147.67 194.391 147.67 Z  M 193.332 138.394 L 193.332 136.276 L 193.332 136.276 Q 193.332 134.194 191.542 134.194 L 191.542 134.194 L 187.927 134.194 L 187.927 140.439 L 191.542 140.439 L 191.542 140.439 Q 193.332 140.439 193.332 138.394 L 193.332 138.394 L 193.332 138.394 Z  M 205.42 147.67 L 205.42 147.67 L 205.018 147.67 L 205.018 147.67 Q 204.653 147.67 204.543 147.377 L 204.543 147.377 L 202.206 141.754 L 198.956 141.754 L 198.956 147.158 L 198.956 147.158 Q 198.956 147.67 198.408 147.67 L 198.408 147.67 L 198.189 147.67 L 198.189 147.67 Q 198.006 147.67 197.842 147.578 L 197.842 147.578 L 197.842 147.578 Q 197.678 147.487 197.678 147.158 L 197.678 147.158 L 197.678 133.427 L 197.678 133.427 Q 197.678 132.916 198.189 132.916 L 198.189 132.916 L 202.571 132.916 L 202.571 132.916 Q 203.995 132.916 204.78 133.774 L 204.78 133.774 L 204.78 133.774 Q 205.566 134.632 205.566 136.276 L 205.566 136.276 L 205.566 138.394 L 205.566 138.394 Q 205.566 139.599 205.073 140.384 L 205.073 140.384 L 205.073 140.384 Q 204.58 141.169 203.448 141.681 L 203.448 141.681 L 205.748 146.976 L 205.748 146.976 Q 205.785 147.122 205.803 147.396 L 205.803 147.396 L 205.803 147.396 Q 205.821 147.67 205.42 147.67 Z  M 204.361 138.394 L 204.361 136.276 L 204.361 136.276 Q 204.361 134.194 202.571 134.194 L 202.571 134.194 L 198.956 134.194 L 198.956 140.439 L 202.571 140.439 L 202.571 140.439 Q 204.361 140.439 204.361 138.394 L 204.361 138.394 L 204.361 138.394 Z  M 217.507 147.67 L 217.507 147.67 L 217.179 147.67 L 217.179 147.67 Q 216.959 147.67 216.85 147.524 L 216.85 147.524 L 216.85 147.524 Q 216.74 147.377 216.667 147.158 L 216.667 147.158 L 215.572 143.726 L 210.313 143.726 L 209.144 147.231 L 209.144 147.231 Q 208.962 147.67 208.633 147.67 L 208.633 147.67 L 208.378 147.67 L 208.378 147.67 Q 208.122 147.67 207.994 147.451 L 207.994 147.451 L 207.994 147.451 Q 207.866 147.231 207.939 147.012 L 207.939 147.012 L 212.176 133.427 L 212.285 133.208 L 212.285 133.208 Q 212.322 133.172 212.322 133.153 L 212.322 133.153 L 212.322 133.153 Q 212.322 133.135 212.358 133.099 L 212.358 133.099 L 212.358 133.099 Q 212.504 132.916 212.687 132.916 L 212.687 132.916 L 213.162 132.916 L 213.162 132.916 Q 213.527 132.916 213.709 133.354 L 213.709 133.354 L 217.945 147.012 L 217.945 147.012 Q 218.019 147.231 217.891 147.451 L 217.891 147.451 L 217.891 147.451 Q 217.763 147.67 217.507 147.67 Z  M 215.097 142.301 L 212.906 134.888 L 212.906 134.888 Q 212.322 137.116 211.756 139.051 L 211.756 139.051 L 211.756 139.051 Q 211.19 140.987 210.788 142.301 L 210.788 142.301 L 215.097 142.301 L 215.097 142.301 Z  M 226.82 134.231 L 226.82 134.231 L 221.707 134.231 L 221.707 139.709 L 226.308 139.709 L 226.308 139.709 Q 226.454 139.709 226.619 139.836 L 226.619 139.836 L 226.619 139.836 Q 226.783 139.964 226.783 140.183 L 226.783 140.183 L 226.783 140.439 L 226.783 140.439 Q 226.783 140.768 226.619 140.877 L 226.619 140.877 L 226.619 140.877 Q 226.454 140.987 226.308 140.987 L 226.308 140.987 L 221.707 140.987 L 221.707 147.158 L 221.707 147.158 Q 221.707 147.341 221.597 147.505 L 221.597 147.505 L 221.597 147.505 Q 221.488 147.67 221.232 147.67 L 221.232 147.67 L 220.977 147.67 L 220.977 147.67 Q 220.502 147.67 220.502 147.158 L 220.502 147.158 L 220.502 133.464 L 220.502 133.464 Q 220.502 133.245 220.611 133.08 L 220.611 133.08 L 220.611 133.08 Q 220.721 132.916 220.977 132.916 L 220.977 132.916 L 226.82 132.916 L 226.82 132.916 Q 227.294 132.916 227.294 133.427 L 227.294 133.427 L 227.294 133.72 L 227.294 133.72 Q 227.294 133.975 227.13 134.103 L 227.13 134.103 L 227.13 134.103 Q 226.966 134.231 226.82 134.231 Z  M 235.438 147.67 L 235.438 147.67 L 232.955 147.67 L 232.955 147.67 Q 231.567 147.67 230.8 146.811 L 230.8 146.811 L 230.8 146.811 Q 230.033 145.953 230.033 144.31 L 230.033 144.31 L 230.033 136.276 L 230.033 136.276 Q 230.033 134.742 230.8 133.829 L 230.8 133.829 L 230.8 133.829 Q 231.567 132.916 232.955 132.916 L 232.955 132.916 L 235.438 132.916 L 235.438 132.916 Q 236.826 132.916 237.629 133.829 L 237.629 133.829 L 237.629 133.829 Q 238.432 134.742 238.432 136.276 L 238.432 136.276 L 238.432 144.31 L 238.432 144.31 Q 238.432 145.953 237.647 146.811 L 237.647 146.811 L 237.647 146.811 Q 236.862 147.67 235.438 147.67 Z  M 237.191 144.273 L 237.191 136.276 L 237.191 136.276 Q 237.191 134.231 235.438 134.231 L 235.438 134.231 L 232.955 134.231 L 232.955 134.231 Q 231.238 134.231 231.238 136.276 L 231.238 136.276 L 231.238 144.273 L 231.238 144.273 Q 231.238 146.355 232.955 146.355 L 232.955 146.355 L 235.438 146.355 L 235.438 146.355 Q 237.191 146.355 237.191 144.273 L 237.191 144.273 L 237.191 144.273 Z  M 249.278 147.67 L 249.278 147.67 L 248.877 147.67 L 248.877 147.67 Q 248.512 147.67 248.402 147.377 L 248.402 147.377 L 246.065 141.754 L 242.815 141.754 L 242.815 147.158 L 242.815 147.158 Q 242.815 147.67 242.267 147.67 L 242.267 147.67 L 242.048 147.67 L 242.048 147.67 Q 241.865 147.67 241.701 147.578 L 241.701 147.578 L 241.701 147.578 Q 241.537 147.487 241.537 147.158 L 241.537 147.158 L 241.537 133.427 L 241.537 133.427 Q 241.537 132.916 242.048 132.916 L 242.048 132.916 L 246.43 132.916 L 246.43 132.916 Q 247.854 132.916 248.639 133.774 L 248.639 133.774 L 248.639 133.774 Q 249.425 134.632 249.425 136.276 L 249.425 136.276 L 249.425 138.394 L 249.425 138.394 Q 249.425 139.599 248.932 140.384 L 248.932 140.384 L 248.932 140.384 Q 248.439 141.169 247.306 141.681 L 247.306 141.681 L 249.607 146.976 L 249.607 146.976 Q 249.644 147.122 249.662 147.396 L 249.662 147.396 L 249.662 147.396 Q 249.68 147.67 249.278 147.67 Z  M 248.219 138.394 L 248.219 136.276 L 248.219 136.276 Q 248.219 134.194 246.43 134.194 L 246.43 134.194 L 242.815 134.194 L 242.815 140.439 L 246.43 140.439 L 246.43 140.439 Q 248.219 140.439 248.219 138.394 L 248.219 138.394 L 248.219 138.394 Z  M 263.265 147.67 L 263.265 147.67 L 262.973 147.67 L 262.973 147.67 Q 262.498 147.67 262.498 147.158 L 262.498 147.158 L 262.498 135.984 L 258.956 144.273 L 258.956 144.273 Q 258.773 144.602 258.372 144.602 L 258.372 144.602 L 258.043 144.602 L 258.043 144.602 Q 257.641 144.602 257.495 144.273 L 257.495 144.273 L 253.953 135.911 L 253.953 147.158 L 253.953 147.158 Q 253.953 147.341 253.843 147.505 L 253.843 147.505 L 253.843 147.505 Q 253.734 147.67 253.478 147.67 L 253.478 147.67 L 253.186 147.67 L 253.186 147.67 Q 252.675 147.67 252.675 147.158 L 252.675 147.158 L 252.675 133.464 L 252.675 133.464 Q 252.675 132.916 253.186 132.916 L 253.186 132.916 L 253.734 132.916 L 253.734 132.916 Q 254.062 132.916 254.172 133.208 L 254.172 133.208 L 258.226 142.703 L 262.206 133.208 L 262.206 133.208 Q 262.316 132.916 262.681 132.916 L 262.681 132.916 L 263.265 132.916 L 263.265 132.916 Q 263.521 132.916 263.63 133.099 L 263.63 133.099 L 263.63 133.099 Q 263.74 133.281 263.74 133.464 L 263.74 133.464 L 263.74 147.158 L 263.74 147.158 Q 263.74 147.341 263.63 147.505 L 263.63 147.505 L 263.63 147.505 Q 263.521 147.67 263.265 147.67 Z " fill="rgb(0,0,0)"/></g></svg>